<?xml version="1.0" encoding="utf-8"?>
<!-- Generator: Adobe Illustrator 23.0.3, SVG Export Plug-In . SVG Version: 6.00 Build 0)  -->
<svg version="1.1" id="Capa_1" xmlns="http://www.w3.org/2000/svg" xmlns:xlink="http://www.w3.org/1999/xlink" x="0px" y="0px"
	 viewBox="0 0 595.3 841.9" style="enable-background:new 0 0 595.3 841.9;" xml:space="preserve">
<style type="text/css">
	.st0{fill:#92bf23;}
</style>
<g>
	<g>
		<path class="st0" d="M180.2,483.7h215.1c23.8,0,43-19.4,43-43v-90.6c0-5.3-4.3-9.6-9.6-9.6c-5.3,0-9.6,4.3-9.6,9.6v90.6
			c0,13.2-10.7,23.8-23.8,23.8H180.2c-13.2,0-23.8-10.7-23.8-23.8v-132c0-0.3,0-0.6-0.1-1v-0.2c0-0.2-0.1-0.5-0.1-0.6
			c0-0.2-0.1-0.4-0.2-0.6c0-0.1-0.1-0.2-0.1-0.3c-0.1-0.2-0.2-0.4-0.2-0.6c0-0.1-0.1-0.2-0.1-0.2c-0.1-0.2-0.2-0.4-0.2-0.6
			c-0.1-0.1-0.1-0.2-0.2-0.3c-0.1-0.2-0.2-0.3-0.2-0.4c-0.1-0.2-0.2-0.2-0.2-0.4c-0.1-0.1-0.2-0.2-0.2-0.3c-0.1-0.2-0.2-0.3-0.3-0.4
			l-0.2-0.2c-0.2-0.2-0.2-0.3-0.4-0.5c-0.1-0.1-0.2-0.1-0.2-0.2l-0.5-0.5c-0.1-0.1-0.2-0.2-0.2-0.2c-0.2-0.2-0.3-0.2-0.5-0.4
			c-0.2-0.1-0.3-0.2-0.6-0.3c-0.1-0.1-0.2-0.1-0.2-0.2c-0.3-0.2-0.6-0.3-0.9-0.4l-59.2-25c-4.9-2.1-10.5,0.2-12.6,5.1
			c-2.1,4.9,0.2,10.5,5.1,12.6l53.2,22.5v193.2c0,22.6,17.4,41,39.4,42.9c-4.5,6.7-7.1,14.8-7.1,23.5c0,23.4,19.1,42.6,42.6,42.6
			c23.4,0,42.6-19.1,42.6-42.6c0-8.6-2.6-16.6-7-23.4h101.8c-4.4,6.7-7,14.7-7,23.4c0,23.4,19.1,42.6,42.6,42.6
			c23.4,0,42.6-19.1,42.6-42.6c0-23.4-19.1-42.6-42.6-42.6H180.2c-13.2,0-23.8-10.7-23.8-23.8v-31.6
			C163.2,481.1,171.4,483.7,180.2,483.7L180.2,483.7z M235.3,574.5c0,12.9-10.5,23.4-23.4,23.4c-12.9,0-23.4-10.5-23.4-23.4
			c0-12.9,10.5-23.4,23.4-23.4C224.8,551.2,235.3,561.6,235.3,574.5L235.3,574.5z M408.3,574.5c0,12.9-10.5,23.4-23.4,23.4
			c-12.9,0-23.4-10.5-23.4-23.4c0-12.9,10.5-23.4,23.4-23.4C397.8,551.2,408.3,561.6,408.3,574.5L408.3,574.5z M408.3,574.5"/>
		<path class="st0" d="M212,433.6h151.4c5.3,0,9.6-4.3,9.6-9.6s-4.3-9.6-9.6-9.6H212c-5.3,0-9.6,4.3-9.6,9.6S206.7,433.6,212,433.6
			L212,433.6z M212,433.6"/>
		<path class="st0" d="M212,381.6h151.4c5.3,0,9.6-4.3,9.6-9.6s-4.3-9.6-9.6-9.6H212c-5.3,0-9.6,4.3-9.6,9.6S206.7,381.6,212,381.6
			L212,381.6z M212,381.6"/>
	</g>
</g>
</svg>
