<?xml version="1.0" encoding="utf-8"?>
<!-- Generator: Adobe Illustrator 23.0.3, SVG Export Plug-In . SVG Version: 6.00 Build 0)  -->
<svg version="1.1" id="Capa_1" xmlns="http://www.w3.org/2000/svg" xmlns:xlink="http://www.w3.org/1999/xlink" x="0px" y="0px"
	 viewBox="0 0 595.3 841.9" style="enable-background:new 0 0 595.3 841.9;" xml:space="preserve">
<style type="text/css">
	.st0{fill:#02823C;}
</style>
<g>
	<path class="st0" d="M308.6,380.4c25.8,0,46.7-21,46.7-46.7c0-25.8-21-46.7-46.7-46.7c-25.8,0-46.7,21-46.7,46.7
		C261.8,359.4,282.8,380.4,308.6,380.4L308.6,380.4z M308.6,307.2c14.5,0,26.4,11.9,26.4,26.4c0,14.5-11.9,26.4-26.4,26.4
		c-14.5,0-26.4-11.9-26.4-26.4C282.2,319.1,294,307.2,308.6,307.2L308.6,307.2z M308.6,307.2"/>
	<path class="st0" d="M237.8,506.6c5.3,0.5,9.9-3.4,10.4-8.7c5.2-56.3,25.5-84.9,60.4-84.9c34.9,0,55.2,28.6,60.4,84.9
		c0.5,5,4.6,8.7,9.5,8.7c0.3,0,0.6,0,0.9-0.1c5.3-0.5,9.2-5.1,8.7-10.4c-2.6-28.2-9-51-19.2-67.7c-13.8-23-34.2-34.6-60.3-34.6
		c-26.2,0-46.5,11.6-60.3,34.6c-10.2,16.8-16.6,39.5-19.2,67.7C228.6,501.5,232.5,506.1,237.8,506.6L237.8,506.6z M237.8,506.6"/>
	<path class="st0" d="M238.6,507.1H378c5.3,0,9.6-4.3,9.6-9.6s-4.3-9.6-9.6-9.6H238.6c-5.3,0-9.6,4.3-9.6,9.6
		S233.2,507.1,238.6,507.1L238.6,507.1z M238.6,507.1"/>
</g>
</svg>
